<?xml version="1.0" encoding="utf-8"?>
<!-- Generator: Adobe Illustrator 19.0.0, SVG Export Plug-In . SVG Version: 6.00 Build 0)  -->
<svg version="1.1" id="Layer_1" xmlns="http://www.w3.org/2000/svg" xmlns:xlink="http://www.w3.org/1999/xlink" x="0px" y="0px"
	 viewBox="0 0 463 399.3" style="enable-background:new 0 0 463 399.3;" xml:space="preserve">
<style type="text/css">
	.st0{clip-path:url(#SVGID_2_);fill:url(#SVGID_3_);}
</style>
<path d="M1004,961c1.5-1.3,3-3.5,4.5-3.5c1.5,0,3,2.3,4.5,3.5C1010,961,1007,961,1004,961z"/>
<g>
	<defs>
		<path id="SVGID_1_" d="M5.6,285.1c5.7-4.4,11.7-5.7,18.4-5.5c7.6,0.2,15.1-1,22.7-1.2c18.5-0.4,37.1-0.7,55.6-0.8
			c4.5,0,6.2-1.4,6.1-6c-0.1-6.1,0.4-12.3,0.4-18.4c0-21.3-0.3-42.5-0.2-63.8c0.1-10.3,1.5-20.6,1.1-30.8c-0.7-19-1.7-38.1-3.7-57
			c-0.9-8.8,0.1-17.8-1.2-26.1c-1.9-11.5,3.5-20.8,5.6-30.9c1.1-5.1,5.9-9.4,9.1-14.1c1.4-2,3.2-3.7,4.5-5.7
			c6.4-9.3,16.4-12.2,26.4-15.7c7.4-2.6,14.6-4.1,22.2-1.6c1.9,0.6,3.8,1.2,5.5,2.2c7.5,4.4,15.2,8.7,22.3,13.7
			c3.1,2.2,5.2,6,7.2,9.4c8.1,13.7,12.6,28.4,12,44.6c-0.2,6.4,0.5,12.8,1.3,19.1c0.2,2.1,2.4,3.9,2.7,5.9c0.5,4.1-2.2,6.9-5.6,8.1
			c-3.1,1.1-6.7,0.8-9-2.4c-2.9-4.2-5.5-8-6.5-13.7c-1-5.8,1.3-11.4-0.5-16.9c-1.8-5.8-3.5-11.6-5.3-17.4c-0.8-2.6-1.8-5.2-2.6-7.9
			c-0.4-1.3-0.3-3.4-1.1-3.7c-6.3-2.8-6.2-9.7-9.4-14.4c-3.6-5.4-8.6-7.6-14.3-8.7c-5.4-1-11-1.5-15.8-2.1
			c-4.8,3.8-8.8,7.6-13.4,10.5c-7.7,4.8-9.5,13.1-11.1,20.4c-2.5,11.2-2.7,23-3.8,34.5c-0.3,2.8-0.6,5.6-0.5,8.4
			c0.1,3,0.6,5.9,1,9.1c-0.3,0.7-1.5,1.9-1.5,3c0.3,8.9,1,17.8,1.2,26.7c0.1,2.6-1.6,5.3-1.7,8c-0.1,8.5,0.2,17,0.3,25.4
			c0.1,5.9,0.1,11.8,0.2,17.7c0.5,16,1,32,1.5,48c0.4,12.6,0.9,25.2,0.9,37.8c0,3.5,1.2,3.9,4,3.8c15.9-0.6,31.8-1.2,47.6-1.6
			c15.1-0.4,30.3-0.3,45.4-0.7c17.6-0.5,35.1-1.3,52.7-1.9c15.7-0.6,31.5-0.9,47.2-1.8c8.2-0.4,16.4-1.7,24.6-2.6
			c0.7-0.1,1.4-0.4,2-0.2c9.6,2.9,19.3,0.8,29,0.6c11.8-0.2,23.6-0.3,35.4-0.5c1.5,0,2.9-0.2,5.2-1.5c-5.9-5.5-12.5-10.6-17.7-16.8
			c-4.5-5.4-7.5-12-11-18.2c-2.7-4.7-2.9-9.6-0.3-14.5c3.5-0.3,11,3.7,11.3,7.2c0.6,7.3,6.4,10.8,10,15.9
			c7.4,10.6,18.4,16.4,29.3,22.4c4.5,2.5,9,5,12.8,8.3c2,1.7,3.7,5.4,3.3,7.8c-0.3,1.9-3.7,4-6.1,4.9c-6.8,2.4-14.5,1.4-20.9,6.2
			c-7.3,5.6-15.2,10.4-22.8,15.7c-1.1,0.8-1.9,2.3-2.5,3.6c-1.6,3.4-2.7,7-4.7,10.2c-0.9,1.4-3.6,3.1-4.8,2.7
			c-2.3-0.7-5.6-2.6-6-4.5c-0.6-3.3,0.4-6.9,1.2-10.4c0.6-2.9,1.8-5.8,2.8-8.6c-0.5-0.3-0.9-0.6-1.4-0.8
			c8.5-6.1,17.1-12.1,25.6-18.2c0-0.5,0-0.9,0-1.4c-8,0.7-16,1.5-24,2c-6.1,0.3-12.3,0.5-18.4,0.2c-6.1-0.3-11.8,0.5-17.3,3.2
			c-0.9,0.4-2.1,0-3.2-0.1c-2.8,0-5.5-0.1-8.3-0.1c-6.1,0-12.2-0.1-18.3,0c-20.4,0.3-40.8,0.7-61.2,1.1c-15.5,0.3-30.9,0.7-46.3,1.1
			c-20.7,0.5-41.4,1.1-62.1,1.7c-9.5,0.3-19.1,0.8-28.6,0.8c-3.9,0-4,2.6-3.9,5c0.3,10.4,1.1,20.9,1.4,31.3c0.2,8.6,0,17.2,0,25.8
			c0.7,0.3,1.4,0.7,2.1,1c5.5-4.4,11.3-8.4,16.4-13.2c6.4-6.1,8.5-8.8,19.2-1.6c0.9,0.6,2,1,3.2,1.6c-1.5,4.9-4.3,7.7-9.7,8.9
			c-3.6,0.8-6.5,4.4-9.9,6.1c-10.1,5.1-14.1,15-19.4,23.9c-2.6,4.4-5,9-8.1,13c-3.7,4.8-10,3.1-12.3-2.6c-1.9-4.5-5.1-8.5-6.8-13.1
			c-4.5-11.9-16.9-16.4-23.7-26.3c-2.2-3.2-4-6.1-1.8-8.5c2.6-2.9,7.2-3.3,10.5-0.8c6.1,4.8,11.8,10.1,17.6,15.3
			c0.9,0.8,1.2,2.3,1.8,3.5c0.5-0.4,1-0.8,1.6-1.2c0-14.7-0.1-29.4,0-44c0.1-6.4,0.5-12.9,1.1-19.3c0.3-3.4-0.9-4.6-4.1-4.5
			c-17.2,1-34.4,2.2-51.6,3c-8.8,0.4-17.7,0.3-26.5,0.5c-1,0-2.1-0.2-3,0.1C15.9,295.4,10.8,290.8,5.6,285.1z M210.5,244.7
			c13-9.3,26.7-17.8,37-30.3c7.3-8.9,7.3-18.3-0.2-27.3c-0.9-1.1-2-2.3-3.2-2.8c-11.7-4.8-22.6-3.4-32.8,4.3
			c-10,7.5-16.6,17.1-20.1,29.1c-0.9,3.1-2.9,6-3.1,9.1c-0.5,9.5,3.3,18.4,8.9,25.3c9,11.1,21.6,16.1,36.4,14.7
			c8.5-0.8,14-5.8,19.8-11.2c3.7-3.4,4.5-7.1,3.8-11.4c-0.5-2.6-1.2-4.9-5.4-4.9c-4.9-0.1-7.1,2.1-8.9,5.9
			c-2.8,6-7.4,10.2-14.1,10.5c-8.2,0.3-14.5-4.4-21.3-10C208.9,245.2,209.8,245.2,210.5,244.7z M207,208.3c3.2-3.7,6.3-7.5,9.6-11.2
			c4.5-5.1,10.5-6.1,16.7-4.6c8,1.9,8,10.3,4.6,14.4c-3.2,3.9-6.6,7.8-10.4,11.1c-4.8,4.3-10,8.3-15.3,12.1c-3.4,2.4-7.3,4-12,6.5
			C198.7,225.1,200.2,216,207,208.3z M335.7,246.2c0,2.2-0.2,4.4,0.1,6.5c0.2,1.2,1.1,2.7,2.2,3.2c7.1,3.5,11.9,1.9,10.6-6.9
			c-0.1-0.8,0-1.7,0.1-2.5c0.2-12.9,0.5-25.8,0.6-38.7c0.1-9-0.3-18.1,0-27.1c0.2-6.8,1.5-13.5,1.9-20.2c0.8-14.1,1.6-28.1,2-42.2
			c0.2-5.9-0.5-11.8-1.2-17.6c-0.4-3.6-4.5-6.5-8-6c-7.5,1.2-6.8,0.7-7.1,9.5c-0.3,8.1,0.2,16.2,0.1,24.3c-0.4,17.7-1.2,35.3-1.3,53
			c-0.1,13.8,0.9,27.6,1.2,41.4c0.2,7.8,0,15.6,0,23.3C336.4,246.2,336.1,246.2,335.7,246.2z M295.2,96.5c-2.7-0.6-5.9,0.9-8.9,1.7
			c-0.4,0.1-0.7,1.4-0.7,2.1c0.1,4.5,0.2,9.1,0.6,13.6c2.2,22.4,1.3,44.8,0.6,67.3c-0.3,11.7-0.1,23.4-0.4,35
			c-0.3,9.3-0.4,18.7-1.8,27.9c-0.8,5.2,0.7,8.4,3.9,11.9c4.3,4.8,8,0.8,11.4-0.8c1-0.5,0.3-4.5,0.3-6.9c0-0.6-0.1-1.3-0.2-1.9
			c-0.6-7.5-1.5-14.9-1.7-22.4c-0.4-13.3-0.6-26.5-0.5-39.8c0.1-13,0.8-26,0.9-39c0.2-14,0-28.1,0-43.5
			C298.1,100.4,297,96.9,295.2,96.5z M436,60.2c-0.8-8.9-8.7-12.8-13.7-18.7c-1.8-2.2-18.1-3.1-22-2.4c-3.4,0.6-7.8,0.1-10,2.1
			c-4.4,4.1-8.4,8.7-11.4,14.5c-4,8-2.1,14.7,1.8,21.4c6,10.5,16,14.4,27.6,15C423.6,91,437.5,77.4,436,60.2z M417.5,54.2
			c6.5,3.1,8.2,10.3,4.3,16.2c-3.4,5.2-7.9,9.8-14.8,9.3c-7.4-0.5-13.7-3.8-17.1-10.8c-0.9-1.8-0.2-4.4-0.1-6.7
			c0.3-5.4,7-12.3,12.4-12.2C406.9,51.2,412.6,51.8,417.5,54.2z"/>
	</defs>
	<clipPath id="SVGID_2_">
		<use xlink:href="#SVGID_1_"  style="overflow:visible;"/>
	</clipPath>
	<linearGradient id="SVGID_3_" gradientUnits="userSpaceOnUse" x1="-35.6667" y1="201.3333" x2="527" y2="201.3333">
		<stop  offset="0" style="stop-color:#B993D6"/>
		<stop  offset="1" style="stop-color:#8CA6DB"/>
	</linearGradient>
	<rect x="-35.7" y="3.3" class="st0" width="562.7" height="396"/>
</g>
</svg>
